HIERARCHY
ROOT hip
{
  OFFSET 0.00112043 5.09927 -9.65472
  CHANNELS 6 Xposition Yposition Zposition Zrotation Xrotation Yrotation
  JOINT abdomen
  {
    OFFSET 0 -1.186 -1.5018
    CHANNELS 3 Zrotation Xrotation Yrotation
    JOINT abdomen2
    {
      OFFSET 0 9.964 0.2134
      CHANNELS 3 Zrotation Xrotation Yrotation
      JOINT chest
      {
        OFFSET 0 13.134 -3.2573
        CHANNELS 3 Zrotation Xrotation Yrotation
        JOINT neck
        {
          OFFSET 0 20.686 -1.6905
          CHANNELS 3 Zrotation Xrotation Yrotation
          JOINT head
          {
            OFFSET 0 7.238 -0.1237
            CHANNELS 3 Zrotation Xrotation Yrotation
            End Site
            {
              OFFSET 0 0 0
            }
          }
        }
        JOINT lCollar
        {
          OFFSET 1.7069 20.075 5.0056
          CHANNELS 3 Zrotation Xrotation Yrotation
          JOINT lShldr
          {
            OFFSET 13.6458 -0.047 -4.849
            CHANNELS 3 Zrotation Xrotation Yrotation
            JOINT lForeArm
            {
              OFFSET 28.3255 -0.9759 2.2888
              CHANNELS 3 Zrotation Xrotation Yrotation
              JOINT lHand
              {
                OFFSET 22.1583 -0.53 10.8316
                CHANNELS 3 Zrotation Xrotation Yrotation
                JOINT lThumb1
                {
                  OFFSET 0.786 0.112 2.5817
                  CHANNELS 3 Zrotation Xrotation Yrotation
                  JOINT lThumb2
                  {
                    OFFSET 0.3601 -0.878 4.2331
                    CHANNELS 3 Zrotation Xrotation Yrotation
                    JOINT lThumb2_End
                    {
                      OFFSET 1.8127 -1.216 2.2227
                      CHANNELS 3 Zrotation Xrotation Yrotation
                      End Site
                      {
                        OFFSET 0.0181 -0.0122 0.0222
                      }
                    }
                  }
                }
                JOINT lCarpal1
                {
                  OFFSET 0.9571 1.114 1.7695
                  CHANNELS 3 Zrotation Xrotation Yrotation
                  JOINT lIndex1
                  {
                    OFFSET 4.1246 0.487 4.1451
                    CHANNELS 3 Zrotation Xrotation Yrotation
                    JOINT lIndex2
                    {
                      OFFSET 3.4052 -1.454 2.7682
                      CHANNELS 3 Zrotation Xrotation Yrotation
                      JOINT lIndex2_End
                      {
                        OFFSET 1.4531 -1.795 1.2713
                        CHANNELS 3 Zrotation Xrotation Yrotation
                        End Site
                        {
                          OFFSET 0.0145 -0.0179 0.0127
                        }
                      }
                    }
                  }
                  JOINT lMid1
                  {
                    OFFSET 5.6954 0.21 2.1184
                    CHANNELS 3 Zrotation Xrotation Yrotation
                    JOINT lMid2
                    {
                      OFFSET 3.9766 -1.54 2.3863
                      CHANNELS 3 Zrotation Xrotation Yrotation
                      JOINT lMid2_End
                      {
                        OFFSET 1.4042 -1.926 1.125
                        CHANNELS 3 Zrotation Xrotation Yrotation
                        End Site
                        {
                          OFFSET 0.014 -0.0193 0.0113
                        }
                      }
                    }
                  }
                }
                JOINT lCarpal2
                {
                  OFFSET 2.0956 0.66 -0.3894
                  CHANNELS 3 Zrotation Xrotation Yrotation
                  JOINT lRing1
                  {
                    OFFSET 5.0395 -0.09 2.4971
                    CHANNELS 3 Zrotation Xrotation Yrotation
                    JOINT lRing2
                    {
                      OFFSET 3.7921 -1.552 1.4806
                      CHANNELS 3 Zrotation Xrotation Yrotation
                      JOINT lRing2_End
                      {
                        OFFSET 1.4655 -1.808 0.9609
                        CHANNELS 3 Zrotation Xrotation Yrotation
                        End Site
                        {
                          OFFSET 0.0147 -0.0181 0.0096
                        }
                      }
                    }
                  }
                  JOINT lPinky1
                  {
                    OFFSET 4.9141 -1.269 0.3591
                    CHANNELS 3 Zrotation Xrotation Yrotation
                    JOINT lPinky2
                    {
                      OFFSET 3.1477 -1.685 0.8462
                      CHANNELS 3 Zrotation Xrotation Yrotation
                      JOINT lPinky2_End
                      {
                        OFFSET 0.8055 -1.585 0.7955
                        CHANNELS 3 Zrotation Xrotation Yrotation
                        End Site
                        {
                          OFFSET 0.0081 -0.0158 0.008
                        }
                      }
                    }
                  }
                }
              }
            }
          }
        }
        JOINT rCollar
        {
          OFFSET -1.7069 20.075 5.0056
          CHANNELS 3 Zrotation Xrotation Yrotation
          JOINT rShldr
          {
            OFFSET -13.6458 -0.047 -4.849
            CHANNELS 3 Zrotation Xrotation Yrotation
            JOINT rForeArm
            {
              OFFSET -28.3255 -0.9759 2.2888
              CHANNELS 3 Zrotation Xrotation Yrotation
              JOINT rHand
              {
                OFFSET -22.1583 -0.53 10.8316
                CHANNELS 3 Zrotation Xrotation Yrotation
                JOINT rThumb1
                {
                  OFFSET -0.786 0.112 2.5817
                  CHANNELS 3 Zrotation Xrotation Yrotation
                  JOINT rThumb2
                  {
                    OFFSET -0.3601 -0.878 4.2331
                    CHANNELS 3 Zrotation Xrotation Yrotation
                    JOINT rThumb2_End
                    {
                      OFFSET -1.8127 -1.216 2.2227
                      CHANNELS 3 Zrotation Xrotation Yrotation
                      End Site
                      {
                        OFFSET -0.0181 -0.0122 0.0222
                      }
                    }
                  }
                }
                JOINT rCarpal1
                {
                  OFFSET -0.9571 1.114 1.7695
                  CHANNELS 3 Zrotation Xrotation Yrotation
                  JOINT rIndex1
                  {
                    OFFSET -4.1246 0.487 4.1451
                    CHANNELS 3 Zrotation Xrotation Yrotation
                    JOINT rIndex2
                    {
                      OFFSET -3.4052 -1.454 2.7682
                      CHANNELS 3 Zrotation Xrotation Yrotation
                      JOINT rIndex2_End
                      {
                        OFFSET -1.4531 -1.795 1.2713
                        CHANNELS 3 Zrotation Xrotation Yrotation
                        End Site
                        {
                          OFFSET -0.0145 -0.018 0.0127
                        }
                      }
                    }
                  }
                  JOINT rMid1
                  {
                    OFFSET -5.6954 0.21 2.1184
                    CHANNELS 3 Zrotation Xrotation Yrotation
                    JOINT rMid2
                    {
                      OFFSET -3.9766 -1.54 2.3863
                      CHANNELS 3 Zrotation Xrotation Yrotation
                      JOINT rMid2_End
                      {
                        OFFSET -1.4042 -1.926 1.125
                        CHANNELS 3 Zrotation Xrotation Yrotation
                        End Site
                        {
                          OFFSET -0.014 -0.0193 0.0113
                        }
                      }
                    }
                  }
                }
                JOINT rCarpal2
                {
                  OFFSET -2.0956 0.66 -0.3894
                  CHANNELS 3 Zrotation Xrotation Yrotation
                  JOINT rRing1
                  {
                    OFFSET -5.0395 -0.09 2.4971
                    CHANNELS 3 Zrotation Xrotation Yrotation
                    JOINT rRing2
                    {
                      OFFSET -3.7921 -1.552 1.4806
                      CHANNELS 3 Zrotation Xrotation Yrotation
                      JOINT rRing2_End
                      {
                        OFFSET -1.4655 -1.808 0.9609
                        CHANNELS 3 Zrotation Xrotation Yrotation
                        End Site
                        {
                          OFFSET -0.0147 -0.0181 0.0096
                        }
                      }
                    }
                  }
                  JOINT rPinky1
                  {
                    OFFSET -4.9141 -1.269 0.3592
                    CHANNELS 3 Zrotation Xrotation Yrotation
                    JOINT rPinky2
                    {
                      OFFSET -3.1477 -1.685 0.8462
                      CHANNELS 3 Zrotation Xrotation Yrotation
                      JOINT rPinky2_End
                      {
                        OFFSET -0.8055 -1.585 0.7955
                        CHANNELS 3 Zrotation Xrotation Yrotation
                        End Site
                        {
                          OFFSET -0.0081 -0.0158 0.008
                        }
                      }
                    }
                  }
                }
              }
            }
          }
        }
      }
    }
  }
  JOINT lThigh
  {
    OFFSET 8.367 -8.2066 0.5982
    CHANNELS 3 Zrotation Xrotation Yrotation
    JOINT lShin
    {
      OFFSET 2.1923 -43.463 -0.4932
      CHANNELS 3 Zrotation Xrotation Yrotation
      JOINT lFoot
      {
        OFFSET 0.7333 -45.8593 -2.6451
        CHANNELS 3 Zrotation Xrotation Yrotation
        End Site
        {
          OFFSET 2.6618 -4.2699 12.3931
        }
      }
    }
  }
  JOINT rThigh
  {
    OFFSET -8.367 -8.2066 0.5982
    CHANNELS 3 Zrotation Xrotation Yrotation
    JOINT rShin
    {
      OFFSET -2.1923 -43.463 -0.4931
      CHANNELS 3 Zrotation Xrotation Yrotation
      JOINT rFoot
      {
        OFFSET -0.7333 -45.8593 -2.6451
        CHANNELS 3 Zrotation Xrotation Yrotation
        End Site
        {
          OFFSET -2.6618 -4.2699 12.3931
        }
      }
    }
  }
}
MOTION
Frames:	5
Frame Time:	0.0333333
0 91.7903 2.51682 0 0 -0 0 0 -0 0 0 -0 0 0 -0 0 0 -0 0 0 -0 0 0 -0 1.66051 0.0835086 5.75766 -0.0175111 0.895433 15.7816 7.95139e-016 -1.98785e-016 -0 5.46658e-016 -3.97569e-016 -0 5.96354e-016 0 -0 3.97569e-016 1.98785e-016 9.54166e-015 1.49089e-016 -3.97569e-016 -0 6.4605e-016 0 3.18055e-015 5.96354e-016 0 3.18055e-015 8.94531e-016 -1.98785e-016 6.36111e-015 6.4605e-016 0 3.18055e-015 5.96354e-016 0 3.18055e-015 8.94531e-016 -1.98785e-016 6.36111e-015 1.49089e-016 -3.97569e-016 -0 6.4605e-016 0 3.18055e-015 5.96354e-016 0 3.18055e-015 8.94531e-016 -1.98785e-016 6.36111e-015 6.4605e-016 0 3.18055e-015 5.96354e-016 0 3.18055e-015 8.94531e-016 -1.98785e-016 6.36111e-015 0 0 -0 -1.4496 0.0636048 -5.0245 -1.74811 1.20616 -16.8394 -1.19271e-015 1.98785e-016 -3.18055e-015 -3.97569e-016 1.98785e-016 -3.18055e-015 -2.98177e-016 1.98785e-016 -3.18055e-015 -2.98177e-016 3.97569e-016 -0 4.96962e-016 0 -6.36111e-015 -9.93923e-017 3.97569e-016 -0 -8.94531e-016 5.96354e-016 -0 -3.97569e-016 3.97569e-016 -0 -9.93923e-017 3.97569e-016 -0 -8.94531e-016 5.96354e-016 -0 -3.97569e-016 3.97569e-016 -0 4.96962e-016 0 -6.36111e-015 -9.93923e-017 3.97569e-016 -0 -8.94531e-016 5.96354e-016 -0 -3.97569e-016 3.97569e-016 -0 -9.93923e-017 3.97569e-016 -0 -8.94531e-016 5.96354e-016 -0 -3.97569e-016 3.97569e-016 -0 -4.66111 -0.998717 0.12318 0.00986924 1.54847 0.176523 4.65186 -0.572283 -0.254274 4.66111 -0.998765 -0.123176 -0.00986867 1.54869 -0.176537 -4.65186 -0.572453 0.25427 
0.0114782 40.0731 -7.57252 -0 -62.9733 -0 -0.167674 3.7265 -0.215197 -0.322312 7.45359 -0.420778 -0.322312 7.45358 -0.420778 0.567378 0.435015 -0.0677757 -2.27455e-007 12.6203 2.52257e-007 1.21496 -8.20627 -6.81577 -50.9739 18.1094 14.6818 -4.18885 -10.7369 16.0123 -8.20471 -6.56268 -17.2943 3.18055e-015 0 -6.36111e-015 1.59028e-015 0 -1.59028e-014 3.18055e-015 -3.18055e-015 -9.54166e-015 4.77083e-015 6.36111e-015 3.18055e-015 4.77083e-015 3.18055e-015 3.18055e-015 -1.41245e-030 -6.36111e-015 -1.27222e-014 -1.41245e-030 -6.36111e-015 -1.27222e-014 4.77083e-015 3.18055e-015 3.18055e-015 -1.41245e-030 -6.36111e-015 -1.27222e-014 -1.41245e-030 -6.36111e-015 -1.27222e-014 4.77083e-015 6.36111e-015 3.18055e-015 4.77083e-015 3.18055e-015 3.18055e-015 -1.41245e-030 -6.36111e-015 -1.27222e-014 -1.41245e-030 -6.36111e-015 -1.27222e-014 4.77083e-015 3.18055e-015 3.18055e-015 -1.41245e-030 -6.36111e-015 -1.27222e-014 -1.41245e-030 -6.36111e-015 -1.27222e-014 10.8576 -5.7637 13.9438 33.155 12.4502 5.06412 17.0476 -20.721 -6.18066 12.2867 17.424 -4.54174 2.34984e-006 5.68818e-006 1.48827e-007 7.00177e-006 1.79393e-006 -3.90286e-006 7.70291e-016 4.5472e-015 -0 -3.18055e-015 -4.69629e-015 -1.27222e-014 2.34984e-006 5.68818e-006 1.48827e-007 7.00177e-006 1.79393e-006 -3.90286e-006 -4.67144e-015 -1.09332e-015 3.18055e-015 2.34984e-006 5.68818e-006 1.48827e-007 7.00177e-006 1.79393e-006 -3.90286e-006 -4.67144e-015 -1.09332e-015 3.18055e-015 -3.18055e-015 -4.69629e-015 -1.27222e-014 2.34984e-006 5.68818e-006 1.48827e-007 7.00177e-006 1.79393e-006 -3.90286e-006 -4.67144e-015 -1.09332e-015 3.18055e-015 2.34984e-006 5.68818e-006 1.48827e-007 7.00177e-006 1.79393e-006 -3.90286e-006 -4.67144e-015 -1.09332e-015 3.18055e-015 1.72941 -25.0614 6.69818 7.33677 75.5283 -7.01058 7.17982 8.44645 1.04823 -1.74982 -19.0818 -6.01315 -2.93019 66.8059 2.50085 -7.0845 8.48215 -0.827168 
0.00907416 -1.65804 -9.62424 -180 -71.9435 -180 -0.257323 6.38122 -0.392022 -0.474851 12.764 -0.762159 -0.474851 12.764 -0.762159 0.974188 0.688082 -0.115327 5.28933e-007 21.5854 -4.59899e-007 0.826913 -13.8302 -11.9234 -92.6512 30.2184 22.6919 -7.17762 -19.0671 16.0435 -16.2575 -9.04753 -29.9201 -1.59028e-015 1.98785e-016 -1.59028e-015 -1.59028e-015 7.95139e-016 -0 -3.18055e-015 7.95139e-016 -1.59028e-015 -1.59028e-015 -5.96354e-016 -1.59028e-015 -7.95139e-015 -1.0138e-014 6.36111e-015 -0 -5.96354e-016 -0 -1.59028e-015 -9.93923e-016 -0 -7.95139e-015 -1.0138e-014 6.36111e-015 -0 -5.96354e-016 -0 -1.59028e-015 -9.93923e-016 -0 -1.59028e-015 -5.96354e-016 -1.59028e-015 -7.95139e-015 -1.0138e-014 6.36111e-015 -0 -5.96354e-016 -0 -1.59028e-015 -9.93923e-016 -0 -7.95139e-015 -1.0138e-014 6.36111e-015 -0 -5.96354e-016 -0 -1.59028e-015 -9.93923e-016 -0 20.3293 -9.25754 24.1198 55.1132 20.6683 13.1268 36.8857 -34.4794 4.51644 22.6858 30.1432 -8.41725 6.36111e-015 9.54166e-015 -0 4.96937e-006 -2.35727e-006 1.01937e-006 -3.18055e-015 3.18055e-015 -1.59028e-015 6.36111e-015 9.54166e-015 -0 9.54166e-015 1.11319e-014 4.77083e-015 4.96937e-006 -2.35727e-006 1.01937e-006 6.62086e-031 4.77083e-015 -7.95139e-015 9.54166e-015 1.11319e-014 4.77083e-015 4.96937e-006 -2.35727e-006 1.01937e-006 6.62086e-031 4.77083e-015 -7.95139e-015 6.36111e-015 9.54166e-015 -0 9.54166e-015 1.11319e-014 4.77083e-015 4.96937e-006 -2.35727e-006 1.01937e-006 6.62086e-031 4.77083e-015 -7.95139e-015 9.54166e-015 1.11319e-014 4.77083e-015 4.96937e-006 -2.35727e-006 1.01937e-006 6.62086e-031 4.77083e-015 -7.95139e-015 9.40815 -45.4828 17.7327 171.271 50.0488 -166.433 8.49708 17.7514 3.47066 -8.23209 -33.8462 -13.4143 -170.34 65.2788 167.122 -8.49361 16.2092 -2.32124 
0.00891427 -3.50299 -9.5889 -180 -69.9522 -180 -0.261395 6.4593 -0.399447 -0.481768 12.9202 -0.776494 -0.481768 12.9202 -0.776494 0.992107 0.503417 -0.114166 1.63595e-007 21.7463 2.17861e-007 0.676585 -13.885 -12.1391 -94.5856 30.7251 23.1012 -7.31032 -19.4351 16.0421 -15.6123 -9.62307 -30.2585 -3.18055e-015 -1.39149e-015 3.18055e-015 -4.77083e-015 -1.59028e-015 3.18055e-015 -4.77083e-015 -7.95139e-016 3.18055e-015 -3.18055e-015 -5.96354e-016 1.59028e-015 -1.78763e-030 1.61016e-014 6.36111e-015 -4.77083e-015 3.97569e-016 4.77083e-015 1.59028e-015 2.38542e-015 4.77083e-015 -1.78763e-030 1.61016e-014 6.36111e-015 -4.77083e-015 3.97569e-016 4.77083e-015 1.59028e-015 2.38542e-015 4.77083e-015 -3.18055e-015 -5.96354e-016 1.59028e-015 -1.78763e-030 1.61016e-014 6.36111e-015 -4.77083e-015 3.97569e-016 4.77083e-015 1.59028e-015 2.38542e-015 4.77083e-015 -1.78763e-030 1.61016e-014 6.36111e-015 -4.77083e-015 3.97569e-016 4.77083e-015 1.59028e-015 2.38542e-015 4.77083e-015 20.7801 -9.20648 24.5036 55.9459 20.9798 13.7029 37.9149 -35.0234 5.08878 23.2703 30.8518 -8.39424 -4.45221e-007 1.87422e-006 3.47554e-006 -1.47058e-006 3.4109e-007 -2.74878e-006 3.18055e-015 1.59028e-015 -1.59028e-015 3.18055e-015 -1.59028e-015 -0 -4.45221e-007 1.87422e-006 3.47554e-006 -1.47058e-006 3.4109e-007 -2.74878e-006 -2.64834e-031 4.77083e-015 3.18055e-015 -4.45221e-007 1.87422e-006 3.47554e-006 -1.47058e-006 3.4109e-007 -2.74878e-006 -2.64834e-031 4.77083e-015 3.18055e-015 3.18055e-015 -1.59028e-015 -0 -4.45221e-007 1.87422e-006 3.47554e-006 -1.47058e-006 3.4109e-007 -2.74878e-006 -2.64834e-031 4.77083e-015 3.18055e-015 -4.45221e-007 1.87422e-006 3.47554e-006 -1.47058e-006 3.4109e-007 -2.74878e-006 -2.64834e-031 4.77083e-015 3.18055e-015 10.2995 -46.5721 19.076 171.484 47.6546 -166.223 8.79743 18.3971 3.55155 -8.80437 -34.5675 -14.1403 -170.786 63.1825 167.35 -8.73706 16.6366 -2.30338 
0.00905517 1.17192 -9.66076 -180 -74.9926 -180 -0.253585 6.11703 -0.377632 -0.470406 12.2356 -0.734187 -0.470406 12.2356 -0.734187 0.946495 0.247134 -0.105062 -1.81963e-007 20.4704 2.71565e-008 0.645218 -13.0521 -11.533 -89.7061 29.437 22.076 -6.97463 -18.5037 16.045 -13.4133 -10.0834 -28.5552 0 1.98785e-016 -0 7.95139e-016 7.95139e-016 -0 -7.95139e-016 -1.98785e-016 -0 -7.95139e-016 -1.59028e-015 -0 3.18055e-015 7.95139e-015 -0 0 1.98785e-015 -0 1.59028e-015 -3.97569e-016 -0 3.18055e-015 7.95139e-015 -0 0 1.98785e-015 -0 1.59028e-015 -3.97569e-016 -0 -7.95139e-016 -1.59028e-015 -0 3.18055e-015 7.95139e-015 -0 0 1.98785e-015 -0 1.59028e-015 -3.97569e-016 -0 3.18055e-015 7.95139e-015 -0 0 1.98785e-015 -0 1.59028e-015 -3.97569e-016 -0 19.6622 -8.63492 23.2724 53.5415 20.0801 12.97 35.3371 -33.6337 3.65906 22.109 29.6039 -7.6443 1.82989e-007 -3.36456e-006 3.50683e-007 -2.61845e-006 -1.49222e-006 1.54924e-006 1.30923e-006 7.46108e-007 -7.74619e-007 6.36111e-015 2.38542e-015 4.77083e-015 1.82989e-007 -3.36456e-006 3.50683e-007 -2.61845e-006 -1.49222e-006 1.54924e-006 1.30923e-006 7.46108e-007 -7.74619e-007 1.82989e-007 -3.36456e-006 3.50683e-007 -2.61845e-006 -1.49222e-006 1.54924e-006 1.30923e-006 7.46108e-007 -7.74619e-007 6.36111e-015 2.38542e-015 4.77083e-015 1.82989e-007 -3.36456e-006 3.50683e-007 -2.61845e-006 -1.49222e-006 1.54924e-006 1.30923e-006 7.46108e-007 -7.74619e-007 1.82989e-007 -3.36456e-006 3.50683e-007 -2.61845e-006 -1.49222e-006 1.54924e-006 1.30923e-006 7.46108e-007 -7.74619e-007 9.49684 -43.7808 17.1976 170.889 53.7087 -166.663 9.09286 16.8056 2.81892 -8.16829 -32.7075 -13.1625 -169.488 68.4842 166.595 -8.85364 15.5359 -1.87813 
